<?xml version="1.0" encoding="utf-8"?>
<!-- Generator: Adobe Illustrator 21.0.0, SVG Export Plug-In . SVG Version: 6.00 Build 0)  -->
<svg fill="#fff" version="1.1" id="Layer_1" xmlns="http://www.w3.org/2000/svg" xmlns:xlink="http://www.w3.org/1999/xlink" x="0px" y="0px"
	 viewBox="0 0 13333.6 873.7" enable-background="new 0 0 13333.6 873.7" xml:space="preserve">
<g>
	<path d="M20,699.5V180h300.5v10.4H30.4v241.9h261.2v10.4H30.4v256.8H20z"/>
	<path d="M963.9,699.5h-11.1c-16.8-39.1-33.4-78.2-49.7-117.3c-16.3-39.1-32.9-78.1-49.7-117.2H614.4
		c-16.8,39.1-33.4,78.2-49.7,117.2c-16.3,39.1-32.9,78.2-49.7,117.3h-11.1c38.6-91,76.9-181.5,115-271.6
		c38.1-90,76.4-180.6,115-271.6c38.6,91,76.9,181.6,115,271.6C887,517.9,925.3,608.4,963.9,699.5z M740.6,198.6
		c-1-3-2.1-6.1-3.3-9.3c-1.2-3.2-2.4-6.3-3.3-9.3c-17.3,46.5-36,92.4-56,137.6c-20,45.3-39.7,90.9-59,136.9h230
		c-18.3-43-36.4-85.7-54.2-128C776.9,284.3,758.9,241.6,740.6,198.6z"/>
	<path d="M1394.3,219.3c-1,1.5-2,3-3,4.4c-1,1.5-2,3-3,4.4c-4.4-3.9-10-8.3-16.7-13c-6.7-4.7-14.5-9.1-23.4-13.3
		c-8.9-4.2-18.8-7.7-29.7-10.4c-10.9-2.7-22.8-4.1-35.6-4.1c-19.3,0-36.3,3.3-50.8,10c-14.6,6.7-26.7,15.6-36.4,26.7
		c-9.7,11.1-16.8,23.7-21.5,37.8c-4.7,14.1-7,28.8-7,44.1c0,15.8,2.3,29.2,7,40.1c4.7,10.9,11.3,20.3,19.7,28.2
		c8.4,7.9,18.8,14.8,31.2,20.8c12.4,5.9,26.5,11.4,42.3,16.3c15.3,5,33,10.4,53.1,16.3c20,5.9,39.1,14.4,57.1,25.2
		c18.1,10.9,33.3,24.9,45.6,41.9c12.4,17.1,18.5,39.2,18.5,66.4c0,21.8-4.1,41.6-12.2,59.4c-8.2,17.8-19.4,33-33.8,45.7
		c-14.4,12.6-31.1,22.2-50.1,28.9c-19.1,6.7-39.5,10-61.2,10c-19.8,0-37.5-2.5-53.1-7.4c-15.6-4.9-29.2-10.9-40.8-17.8
		c-11.6-6.9-21.5-14-29.7-21.2c-8.2-7.2-14.5-13-18.9-17.4l8.9-8.9c6.9,7.4,14.8,14.9,23.7,22.3c8.9,7.4,18.8,14.1,29.7,20
		c10.9,5.9,22.9,10.8,36,14.5c13.1,3.7,27.3,5.6,42.7,5.6c19.3,0,37.8-3.1,55.6-9.3c17.8-6.2,33.5-15,47.1-26.3
		c13.6-11.4,24.6-25.1,33-41.2c8.4-16.1,12.6-34,12.6-53.8c0-23.8-5-43.4-14.8-59c-9.9-15.6-22.5-28.6-37.9-38.9
		c-15.3-10.4-32.3-18.7-50.8-24.9c-18.5-6.2-36.5-12-53.8-17.5c-9.4-2.5-20.5-5.9-33.4-10.4c-12.9-4.4-25.4-10.7-37.5-18.9
		c-12.1-8.2-22.6-18.5-31.5-31.2c-8.9-12.6-13.8-28.6-14.8-47.9c-1-16.3,0.7-32.8,5.2-49.3c4.5-16.6,11.9-31.5,22.3-44.9
		c10.4-13.4,23.9-24.1,40.4-32.3c16.6-8.2,36.5-12.2,59.7-12.2c18.8,0,37.4,3.1,55.7,9.3C1358.4,192.5,1376.5,203.5,1394.3,219.3z"
		/>
	<path d="M1637.7,699.5V180h10.4v252.3h344.3V180h13.4c-0.5,87.1-1,173.6-1.5,259.7c-0.5,86.1-1,172.7-1.5,259.7h-10.4V442.7h-344.3
		v256.8H1637.7z"/>
	<path d="M2233.6,180h10.4v519.4h-10.4V180z"/>
	<path d="M2443.6,440.5c0-36.6,6.9-71.1,20.8-103.5c13.8-32.4,32.8-60.6,56.8-84.6c24-24,52.1-43,84.2-57.1
		c32.1-14.1,66.5-21.2,103.1-21.2c36.6,0,71.1,7,103.5,21.2c32.4,14.1,60.6,33.2,84.6,57.1c24,24,43,52.2,57.1,84.6
		c14.1,32.4,21.1,66.9,21.1,103.5c0,36.6-7,71-21.1,103.2c-14.1,32.1-33.1,60.2-57.1,84.2c-24,24-52.2,42.9-84.6,56.8
		c-32.4,13.8-66.9,20.8-103.5,20.8c-36.6,0-71-6.9-103.1-20.8c-32.2-13.8-60.2-32.8-84.2-56.8c-24-24-42.9-52.1-56.8-84.2
		C2450.5,511.5,2443.6,477.1,2443.6,440.5z M2454,441.2c0,35.1,6.7,68,20,98.7c13.4,30.7,31.4,57.5,54.2,80.5
		c22.7,23,49.5,41.2,80.1,54.5c30.7,13.4,63.3,20,98,20c35.1,0,68.4-6.7,99.8-20c31.4-13.3,58.9-31.5,82.4-54.5
		c23.5-23,42-50,55.7-80.9c13.6-30.9,20.4-63.9,20.4-99.1c0-35.1-6.8-68.1-20.4-99.1c-13.6-30.9-32-58-55.3-81.2
		c-23.3-23.3-50.3-41.7-81.3-55.3c-30.9-13.6-64-20.4-99.1-20.4c-35.1,0-68.1,6.8-99.1,20.4c-30.9,13.6-57.9,32-80.9,55.3
		c-23,23.2-41.2,50.4-54.5,81.6C2460.6,373,2454,406.1,2454,441.2z"/>
	<path d="M3622.7,180v543.2c-72.2-87.6-144.1-174.4-215.6-260.5c-71.5-86.1-143.4-172.9-215.6-260.5c-2.5-3.5-4.8-6.7-7.1-9.6
		c-2.2-3-4.6-6.2-7-9.6c0.5,4,0.9,7.9,1.1,11.9c0.3,4,0.6,7.9,1.1,11.9v492.7h-10.4V156.3c72.2,88,144.1,175.2,215.6,261.6
		c71.5,86.3,143.3,173.3,215.6,260.8c2.5,3.5,4.8,6.7,7,9.6c2.2,3,4.6,6.2,7.1,9.6c-0.5-3.9-0.9-7.9-1.1-11.9
		c-0.3-3.9-0.6-7.9-1.1-11.9V180H3622.7z"/>
	<path d="M4016,705.4c-26.7,0-51.5-3.7-74.2-11.1c-22.8-7.4-42.6-18.4-59.4-33c-16.8-14.6-29.9-32.8-39.3-54.6
		c-9.4-21.8-14.1-46.7-14.1-74.9V180h61.6v349.5c0,18.8,3.1,35.5,9.3,50.1c6.2,14.6,14.8,26.9,26,36.7c11.1,9.9,24.4,17.5,39.7,22.6
		c15.3,5.2,32.1,7.8,50.4,7.8s35.1-2.6,50.5-7.8c15.3-5.2,28.6-12.7,39.7-22.6c11.1-9.9,19.9-22.1,26.3-36.7
		c6.4-14.6,9.6-31.3,9.6-50.1V180h61.6v351.7c0,28.2-4.8,53.2-14.5,74.9c-9.6,21.8-22.9,40-39.7,54.6c-16.8,14.6-36.6,25.6-59.4,33
		C4067.4,701.7,4042.7,705.4,4016,705.4z"/>
	<path d="M4858.2,180v543.2c-63.8-67.8-127.1-135.1-190-201.8c-62.8-66.8-126.2-134.1-190-201.8c-2.5-3.5-4.8-6.7-7-9.7
		c-2.2-3-4.6-6.2-7-9.6c0.5,4,0.8,7.9,1.1,11.9c0.2,4,0.6,7.9,1.1,11.9v375.5h-61.6V156.3c63.8,69.3,127.1,137.9,190,205.9
		c62.8,68,126.1,136.7,190,205.9c2.5,3.5,4.8,6.7,7,9.6c2.2,3,4.6,6.2,7,9.7c-0.5-4-0.9-7.9-1.1-11.9c-0.3-4-0.6-7.9-1.1-11.9V180
		H4858.2z"/>
	<path d="M5081.6,180h61.6v519.4h-61.6V180z"/>
	<path d="M5699,180v58.6h-173.6v460.8h-61.6V238.6h-175.1V180H5699z"/>
	<path d="M5824.4,699.5V180h319.8v58.6H5886v169.9h229.3v58.6H5886v173.6h268.6v58.6H5824.4z"/>
	<path d="M6337.9,180h121c35.6,0,69.2,6.1,100.9,18.2c31.7,12.1,59.4,29.6,83.1,52.3c23.8,22.8,42.5,50.1,56.4,82
		c13.8,31.9,20.8,67.9,20.8,108c0,29.2-5.1,59.1-15.2,89.8s-26.6,58.5-49.3,83.5c-22.8,25-52.3,45.5-88.7,61.6
		c-36.4,16.1-80.8,24.1-133.2,24.1h-95.7V180z M6399.5,238.6v401.5h51.9c29.2,0,56.4-4.7,81.6-14.1c25.2-9.4,47.1-22.9,65.7-40.4
		c18.5-17.6,33.1-38.6,43.8-63.1c10.6-24.5,15.9-52.1,15.9-82.7s-5.3-58.4-15.9-83.1c-10.6-24.7-25.2-45.9-43.8-63.4
		c-18.6-17.6-40.5-31-65.7-40.4c-25.2-9.4-52.4-14.1-81.6-14.1H6399.5z"/>
</g>
<path d="M6994.4,794.1V85.4h10.6v708.7H6994.4z"/>
<g>
	<path d="M7272.1,699.5V180h278.3v10.4h-267.9v249.3h238.9v10.4h-238.9v249.3H7272.1z"/>
	<path d="M8003,699.5c-35.1-83.6-68-167.1-98.7-250.4c-30.7-83.4-63.6-166.8-98.7-250.4c-1-3-2.1-6.1-3.3-9.3
		c-1.2-3.2-2.4-6.3-3.3-9.3c-1,3-2.1,6.1-3.3,9.3c-1.2,3.2-2.4,6.3-3.3,9.3c-35.1,83.6-68,167.1-98.7,250.4
		c-30.7,83.4-63.6,166.8-98.7,250.4h-11.1c38.1-90.5,73.9-181.1,107.6-271.6c33.6-90.5,69.5-181.1,107.6-271.6
		c38.1,90.5,73.9,181.1,107.6,271.6c33.6,90.5,69.5,181.1,107.6,271.6H8003z M7684.6,463.5h229.3v-10.4h-229.3V463.5z"/>
	<path d="M8362.9,204.5l-4.5,8.2c-6.9-3-15-5.9-24.1-8.9c-9.2-3-18.9-5.8-29.3-8.5c-10.4-2.7-21.1-4.8-32.3-6.3
		c-11.1-1.5-22.1-2.2-33-2.2c-20.3,0-38.6,2.9-54.9,8.5c-16.3,5.7-30.2,13.5-41.6,23.4c-11.4,9.9-20.2,21.4-26.3,34.5
		c-6.2,13.1-9.3,26.8-9.3,41.2c0,23.3,6.9,41.6,20.8,54.9c13.8,13.4,31.3,24.7,52.3,34.1c21,9.4,43.7,18.2,67.9,26.3
		c24.2,8.2,46.9,18.2,67.9,30.1c21,11.9,38.5,27.2,52.3,46c13.8,18.8,20.8,43.5,20.8,74.2c0,22.8-4.1,43-12.2,60.8
		c-8.2,17.8-19.4,33-33.8,45.6c-14.4,12.6-31.3,22.3-50.8,28.9c-19.5,6.7-40.9,10-64.2,10c-20.3,0-39-2.2-56-6.7
		c-17.1-4.5-32.2-9.6-45.3-15.6c-13.1-5.9-24.1-11.9-33-17.8c-8.9-5.9-15.6-10.1-20-12.6l5.9-9.6c7.4,5.4,16.6,11.1,27.5,17.1
		c10.9,5.9,22.9,11.5,36,16.7c13.1,5.2,27.1,9.5,41.9,13c14.8,3.5,29.9,5.2,45.3,5.2c18.3,0,36.4-2.7,54.2-8.2
		c17.8-5.4,33.6-13.7,47.5-24.9c13.8-11.1,25.1-25.1,33.8-41.9c8.6-16.8,13-36.6,13-59.4c0-29.2-6.9-52.7-20.8-70.5
		c-13.9-17.8-31.3-32.4-52.3-43.8c-21-11.4-43.7-21-67.9-28.9c-24.2-7.9-46.9-16.7-67.9-26.3c-21-9.6-38.5-21.8-52.3-36.4
		c-13.9-14.6-20.8-34-20.8-58.3c0-16.8,3.6-32.5,10.8-47.1c7.2-14.6,16.9-27.3,29.3-38.2c12.4-10.9,27-19.3,43.8-25.2
		c16.8-5.9,34.9-8.9,54.2-8.9c8.9,0,18.9,0.6,30.1,1.9c11.1,1.2,22.4,3.1,33.8,5.6c11.4,2.5,22.6,5.4,33.8,8.9
		C8344,196.9,8354,200.6,8362.9,204.5z"/>
	<path d="M8518.7,699.5V180h10.4v252.3h344.3V180h13.4c-0.5,87.1-1,173.6-1.5,259.7c-0.5,86.1-1,172.7-1.5,259.7h-10.4V442.7h-344.3
		v256.8H8518.7z"/>
	<path d="M9061.9,180h10.4v519.4h-10.4V180z"/>
	<path d="M9205.8,440.5c0-36.6,6.9-71.1,20.8-103.5c13.8-32.4,32.8-60.6,56.8-84.6c24-24,52.1-43,84.2-57.1
		c32.2-14.1,66.5-21.1,103.1-21.1c36.6,0,71.1,7,103.5,21.1c32.4,14.1,60.6,33.1,84.6,57.1c24,24,43,52.2,57.1,84.6
		c14.1,32.4,21.1,66.9,21.1,103.5c0,36.6-7,71-21.1,103.1c-14.1,32.2-33.1,60.2-57.1,84.2c-24,24-52.2,42.9-84.6,56.8
		c-32.4,13.9-66.9,20.8-103.5,20.8c-36.6,0-71-6.9-103.1-20.8c-32.2-13.8-60.2-32.8-84.2-56.8c-24-24-42.9-52.1-56.8-84.2
		C9212.8,511.5,9205.8,477.1,9205.8,440.5z M9216.2,441.2c0,35.1,6.7,68,20,98.7c13.4,30.7,31.4,57.5,54.2,80.5
		c22.7,23,49.5,41.2,80.1,54.5c30.7,13.4,63.3,20,98,20c35.1,0,68.4-6.7,99.8-20c31.4-13.4,58.9-31.5,82.4-54.5
		c23.5-23,42-50,55.7-80.9c13.6-30.9,20.4-63.9,20.4-99.1c0-35.1-6.8-68.1-20.4-99.1c-13.6-30.9-32-58-55.3-81.3
		c-23.3-23.2-50.3-41.7-81.3-55.3c-30.9-13.6-63.9-20.4-99.1-20.4c-35.1,0-68.2,6.8-99.1,20.4c-30.9,13.6-57.9,32-80.9,55.3
		c-23,23.3-41.2,50.5-54.5,81.6C9222.9,373,9216.2,406.1,9216.2,441.2z"/>
	<path d="M10294.4,180v543.2c-70.8-88.5-139.1-176-205.2-262.3c-66-86.3-131.5-172.5-196.3-258.6c-2.5-3.5-4.8-6.7-7-9.6
		c-2.2-3-4.6-6.2-7-9.6c0.5,4,0.9,7.9,1.1,11.9c0.2,4,0.6,7.9,1.1,11.9v492.7h-10.4V156.3c35.6,45,70.2,89.4,103.9,133.2
		c33.6,43.8,66.8,87.3,99.4,130.6c32.7,43.3,65.3,86.3,98,129.1c32.7,42.8,66,86,100.2,129.5c2.5,3.5,4.8,6.7,7,9.6
		c2.2,3,4.6,6.2,7.1,9.6c-0.5-4-0.9-7.9-1.1-11.9c-0.3-4-0.6-7.9-1.1-11.9V180H10294.4z"/>
	<path d="M10665.4,699.5V180h10.4v252.3h344.3V180h13.4c-0.5,87.1-1,173.6-1.5,259.7c-0.5,86.1-1,172.7-1.5,259.7h-10.4V442.7
		h-344.3v256.8H10665.4z"/>
	<path d="M11208.6,699.5V180h103.9c14.3,0,30.2,2.4,47.5,7c17.3,4.7,33.4,12.4,48.2,23c14.8,10.6,27.3,24.6,37.5,41.9
		c10.1,17.3,15.2,38.8,15.2,64.6c0,18.8-3.1,36.9-9.3,54.2c-6.2,17.3-15.7,32.7-28.6,46c-12.9,13.4-29.3,24.1-49.3,32.3
		c-20,8.2-43.9,12.2-71.6,12.2h-83.1v238.2H11208.6z M11219,450.9h85.3c28.7,0,52.4-4.7,71.2-14.1c18.8-9.4,33.8-21.1,44.9-35.2
		c11.1-14.1,18.9-29.1,23.4-44.9c4.5-15.8,6.7-30.2,6.7-43c0-18.3-3.7-35-11.1-50.1c-7.4-15.1-17.7-28.1-30.8-39
		c-13.1-10.9-28.5-19.3-46-25.2c-17.6-5.9-36.7-8.9-57.5-8.9h-86.1V450.9z M11365.9,449.4l149.9,250.1h-13.4l-148.4-250.1H11365.9z"
		/>
	<path d="M12156.2,699.5c-35.1-83.6-68-167.1-98.7-250.4c-30.7-83.4-63.6-166.8-98.7-250.4c-1-3-2.1-6.1-3.3-9.3
		c-1.2-3.2-2.4-6.3-3.3-9.3c-1,3-2.1,6.1-3.3,9.3c-1.2,3.2-2.4,6.3-3.3,9.3c-35.1,83.6-68,167.1-98.7,250.4
		c-30.7,83.4-63.6,166.8-98.7,250.4h-11.1c38.1-90.5,74-181.1,107.6-271.6c33.6-90.5,69.5-181.1,107.6-271.6
		c38.1,90.5,73.9,181.1,107.6,271.6c33.6,90.5,69.5,181.1,107.6,271.6H12156.2z M11837.9,463.5h229.3v-10.4h-229.3V463.5z"/>
	<path d="M12277.9,699.5V180h103.9c14.3,0,30.2,2.4,47.5,7c17.3,4.7,33.4,12.4,48.2,23c14.8,10.6,27.3,24.6,37.5,41.9
		c10.1,17.3,15.2,38.8,15.2,64.6c0,18.8-3.1,36.9-9.3,54.2c-6.2,17.3-15.7,32.7-28.6,46c-12.9,13.4-29.3,24.1-49.3,32.3
		c-20,8.2-43.9,12.2-71.6,12.2h-83.1v238.2H12277.9z M12288.3,450.9h85.3c28.7,0,52.4-4.6,71.2-13.7c18.8-9.1,33.8-20.5,44.9-34.1
		c11.1-13.6,18.9-28.3,23.4-44.2c4.5-15.8,6.7-30.4,6.7-43.8c0-18.8-3.7-35.9-11.1-51.2c-7.4-15.3-17.7-28.4-30.8-39.3
		c-13.1-10.9-28.5-19.3-46-25.2c-17.6-5.9-36.7-8.9-57.5-8.9h-86.1V450.9z"/>
	<path d="M12657.8,699.5V180h103.9c14.3,0,30.2,2.4,47.5,7c17.3,4.7,33.4,12.4,48.2,23c14.8,10.6,27.3,24.6,37.5,41.9
		c10.1,17.3,15.2,38.8,15.2,64.6c0,18.8-3.1,36.9-9.3,54.2c-6.2,17.3-15.7,32.7-28.6,46c-12.9,13.4-29.3,24.1-49.3,32.3
		c-20,8.2-43.9,12.2-71.6,12.2h-83.1v238.2H12657.8z M12668.2,450.9h85.3c28.7,0,52.4-4.6,71.2-13.7c18.8-9.1,33.8-20.5,44.9-34.1
		c11.1-13.6,18.9-28.3,23.4-44.2c4.5-15.8,6.7-30.4,6.7-43.8c0-18.8-3.7-35.9-11.1-51.2c-7.4-15.3-17.7-28.4-30.8-39.3
		c-13.1-10.9-28.5-19.3-46-25.2c-17.6-5.9-36.7-8.9-57.5-8.9h-86.1V450.9z"/>
	<path d="M13276,204.5l-4.5,8.2c-6.9-3-15-5.9-24.1-8.9c-9.2-3-18.9-5.8-29.3-8.5c-10.4-2.7-21.1-4.8-32.3-6.3
		c-11.1-1.5-22.1-2.2-33-2.2c-20.3,0-38.6,2.9-54.9,8.5c-16.3,5.7-30.2,13.5-41.6,23.4c-11.4,9.9-20.2,21.4-26.3,34.5
		c-6.2,13.1-9.3,26.8-9.3,41.2c0,23.3,6.9,41.6,20.8,54.9c13.8,13.4,31.3,24.7,52.3,34.1c21,9.4,43.7,18.2,67.9,26.3
		c24.2,8.2,46.9,18.2,67.9,30.1c21,11.9,38.5,27.2,52.3,46c13.8,18.8,20.8,43.5,20.8,74.2c0,22.8-4.1,43-12.2,60.8
		c-8.2,17.8-19.4,33-33.8,45.6c-14.4,12.6-31.3,22.3-50.8,28.9c-19.5,6.7-40.9,10-64.2,10c-20.3,0-39-2.2-56-6.7
		c-17.1-4.5-32.2-9.6-45.3-15.6c-13.1-5.9-24.1-11.9-33-17.8c-8.9-5.9-15.6-10.1-20-12.6l5.9-9.6c7.4,5.4,16.6,11.1,27.5,17.1
		c10.9,5.9,22.9,11.5,36,16.7c13.1,5.2,27.1,9.5,41.9,13c14.8,3.5,29.9,5.2,45.3,5.2c18.3,0,36.4-2.7,54.2-8.2
		c17.8-5.4,33.6-13.7,47.5-24.9c13.8-11.1,25.1-25.1,33.8-41.9c8.6-16.8,13-36.6,13-59.4c0-29.2-6.9-52.7-20.8-70.5
		c-13.9-17.8-31.3-32.4-52.3-43.8c-21-11.4-43.7-21-67.9-28.9c-24.2-7.9-46.9-16.7-67.9-26.3c-21-9.6-38.5-21.8-52.3-36.4
		c-13.9-14.6-20.8-34-20.8-58.3c0-16.8,3.6-32.5,10.8-47.1c7.2-14.6,16.9-27.3,29.3-38.2c12.4-10.9,27-19.3,43.8-25.2
		c16.8-5.9,34.9-8.9,54.2-8.9c8.9,0,18.9,0.6,30.1,1.9c11.1,1.2,22.4,3.1,33.8,5.6c11.4,2.5,22.6,5.4,33.8,8.9
		C13257,196.9,13267.1,200.6,13276,204.5z"/>
</g>
<g>
</g>
<g>
</g>
<g>
</g>
<g>
</g>
<g>
</g>
<g>
</g>
</svg>
